<!--?xml version="1.0" standalone="no"?-->
<svg id="sw-js-blob-svg" viewBox="0 0 100 100" xmlns="http://www.w3.org/2000/svg">
    <defs>
        <linearGradient id="sw-gradient" x1="0" x2="1" y1="1" y2="0">
            <stop id="stop1" stop-color="rgba(248, 117, 55, 1)" offset="0%"></stop>
            <stop id="stop2" stop-color="rgba(251, 168, 31, 1)" offset="100%"></stop>
        </linearGradient>
    </defs>
    <path fill="url(#sw-gradient)"
        d="M21.5,-23.8C29.1,-19.1,37.6,-13.6,38.5,-7C39.5,-0.4,32.8,7.4,27.9,16.2C22.9,25.1,19.7,35.1,13,38.8C6.4,42.5,-3.6,40,-12.2,35.9C-20.7,31.7,-27.7,25.9,-31.1,18.6C-34.5,11.4,-34.2,2.7,-32.6,-5.7C-31.1,-14.1,-28.2,-22.2,-22.6,-27.2C-16.9,-32.1,-8.5,-34,-0.8,-33.1C6.9,-32.1,13.8,-28.4,21.5,-23.8Z"
        width="100%" height="100%" transform="translate(50 50)" style="transition: 0.3s;"
        stroke-width="0"></path>
</svg>