<!--?xml version="1.0" standalone="no"?-->
<svg id="sw-js-blob-svg" viewBox="0 0 100 100" xmlns="http://www.w3.org/2000/svg">
    <defs>
        <linearGradient id="sw-gradient" x1="0" x2="1" y1="1" y2="0">
            <stop id="stop1" stop-color="rgba(160.703, 0, 0, 1)" offset="0%"></stop>
            <stop id="stop2" stop-color="rgba(251, 168, 31, 1)" offset="100%"></stop>
        </linearGradient>
    </defs>
    <path fill="none"
        d="M19.5,-34.2C23.2,-31.5,22.9,-22.3,24.6,-15.5C26.3,-8.7,29.9,-4.4,29.1,-0.4C28.4,3.5,23.2,6.9,18.6,8.7C14.1,10.5,10.1,10.5,7.1,11.8C4.1,13,2,15.4,-1,17.1C-4,18.8,-8,19.9,-13.2,19.9C-18.5,19.9,-24.9,19,-28.4,15.5C-32,12,-32.7,6,-33.8,-0.6C-34.9,-7.3,-36.5,-14.6,-31.9,-16.4C-27.4,-18.2,-16.8,-14.5,-10.5,-15.7C-4.1,-16.8,-2.1,-22.9,2.9,-27.9C7.8,-32.9,15.7,-36.8,19.5,-34.2Z"
        width="100%" height="100%" transform="translate(50 50)" style="transition: 0.3s;"
        stroke-width="1" stroke="url(#sw-gradient)"></path>
</svg>